
<svg width="340" height="240" viewBox="0 0 589 462" fill="none" xmlns="http://www.w3.org/2000/svg">

<path d="M457.193 407.109C457.193 421.536 457.193 435.964 457.193 450.687C362.325 450.687 267.834 450.687 172.818 450.687C172.818 347.031 172.818 243.5 173.229 139.472C182.229 139.533 190.781 139.636 199.16 137.386C199.237 139.6 199.283 141.367 199.283 143.134C199.286 234.442 199.286 325.75 199.286 417.059C199.286 418.465 199.286 419.872 199.286 421.961C200.079 420.691 200.448 420.101 200.896 419.844C201.309 421.166 201.643 422.156 202.108 423.325C202.721 423.377 203.203 423.251 204.098 423.056C277.771 422.98 351.033 422.973 424.295 422.973C425.175 422.973 426.056 423.071 427.01 423.257C427.314 423.308 427.543 423.226 428.022 423.083C428.441 423.026 428.612 423.029 429.116 422.913C429.785 421.461 430.412 420.129 430.413 418.795C430.46 350.769 430.46 282.742 430.406 214.715C430.405 213.411 429.704 212.108 429.17 210.536C428.605 209.825 428.199 209.381 427.712 208.794C427.392 208.754 427.153 208.858 426.508 209.051C411.542 209.146 396.983 209.181 382.424 209.149C366.547 209.115 350.671 209.019 334.635 208.728C333.701 208.652 332.926 208.797 331.797 208.788C331.442 176.414 331.442 144.194 331.442 111.607C295.786 111.607 260.828 111.607 225.928 111.285C229.183 103.822 229.937 96.3128 229.511 88.5883C229.431 87.1342 229.977 85.6458 230.487 84.4521C231.602 84.8661 232.463 85.1192 233.324 85.1191C276.679 85.1137 320.034 85.0867 363.388 85.062C378.463 100.563 393.542 116.06 408.61 131.568C415.381 138.536 422.129 145.525 429.267 152.929C437.521 161.525 445.262 169.831 453.34 177.796C456.217 180.633 457.142 183.511 457.135 187.462C457.013 258.766 457.034 330.07 457.034 401.374C457.034 403.286 457.138 405.197 457.193 407.109ZM360.084 182.033C360.65 182.164 361.216 182.407 361.782 182.408C379.181 182.432 396.58 182.45 413.98 182.393C415.037 182.39 416.093 181.761 416.996 180.857C403.391 166.67 389.79 152.479 376.178 138.298C371.199 133.111 366.174 127.968 361.225 122.751C360.203 121.673 359.544 121.04 358.844 122.742C358.535 122.628 358.227 122.514 357.918 122.4C357.886 122.682 357.827 122.965 357.827 123.248C357.825 141.577 357.812 159.907 357.891 178.236C357.894 179.034 358.75 179.827 359.488 181.001C359.531 181.151 359.575 181.302 360.084 182.033Z" fill="#4DBA4D"/>
<path d="M457.524 407.097C457.138 405.197 457.034 403.285 457.034 401.374C457.034 330.07 457.012 258.766 457.135 187.462C457.142 183.511 456.217 180.633 453.34 177.796C445.262 169.831 437.521 161.525 429.519 153.107C430.373 152.456 431.474 151.53 432.32 151.723C447.058 155.081 461.308 159.485 474.515 167.328C486.126 174.223 496.716 182.17 505.898 191.949C518.056 204.897 527.225 219.666 533.447 236.426C539.612 253.032 542.512 270.014 542.051 287.639C541.665 302.406 538.719 316.646 533.499 330.478C528.951 342.529 522.939 353.715 515.06 363.911C514.451 364.7 514.191 365.759 513.46 366.846C509.149 364.649 506.935 365.648 506.738 370.022C506.601 373.056 506.712 376.102 506.712 379.601C503.268 379.601 500.359 379.53 497.454 379.617C493.029 379.751 492.002 381.786 494.211 385.871C483.607 394.386 472.418 401.934 459.555 406.701C459.016 406.901 458.423 406.96 457.524 407.097Z" fill="#A9FFA9" fill-opacity="0.35"/>
<path d="M171.829 370.827C171.829 391.007 171.765 410.744 171.89 430.48C171.911 433.892 171.057 435.291 167.471 436.593C149.749 443.032 132.389 441.828 115.678 434.116C99.5011 426.651 87.8657 414.319 81.6229 397.394C74.0791 376.943 75.4955 357.28 86.6373 338.294C96.5219 321.449 111.292 311.105 129.858 306.75C142.37 303.815 155.252 304.453 167.615 309.053C170.544 310.142 171.962 311.658 171.924 315.152C171.721 333.561 171.829 351.974 171.829 370.827Z" fill="#A9FFA9" fill-opacity="0.35"/>
<path d="M230.234 84.1736C229.977 85.6462 229.431 87.1346 229.511 88.5887C229.937 96.3132 229.183 103.822 225.794 111.566C224.275 114.456 223.056 116.812 221.604 119.016C216.444 126.85 208.975 131.997 200.755 136.464C200.553 136.445 200.156 136.539 199.958 136.528C199.483 136.567 199.266 136.708 199.108 136.939C190.781 139.637 182.229 139.533 173.242 139.061C167.086 136.32 160.857 134.165 155.66 130.537C139.77 119.443 132.871 100.483 137.261 82.0176C141.67 63.4776 156.803 49.4544 175.716 46.3831C198.489 42.6852 220.703 56.7231 227.819 79.2535C228.271 80.6859 229.135 81.9887 230.104 83.6399C230.401 83.9281 230.234 84.1736 230.234 84.1736ZM190.927 70.7912C184.167 66.6455 177.189 67.6461 172.882 73.3787C166.544 81.8144 166.471 99.5548 172.74 108.065C177.631 114.706 187.686 114.637 192.983 108.322C199.242 100.863 199.553 77.2189 190.927 70.7912Z" fill="#4DBA4D"/>
<path d="M411.744 78.1129C394.005 83.9568 373.492 74.8809 367.841 55.213C362.973 38.2689 371.774 19.7754 389.171 13.6298C408.145 6.92711 427.174 16.9716 433.194 34.5991C438.854 51.1736 432.415 70.3489 411.744 78.1129Z" fill="#A9FFA9" fill-opacity="0.35"/>
<path d="M142.59 197.427C142.598 173.491 152.205 154.247 171.407 138.835C171.407 176.459 171.407 213.438 171.407 250.322C161.584 246.38 146.592 227.153 143.864 205.03C146.004 204.606 147.895 204.993 149.463 204.451C150.918 203.947 152.03 202.45 153.293 201.391C152.057 200.108 151.027 198.161 149.537 197.702C147.397 197.042 144.922 197.466 142.59 197.427Z" fill="#A9FFA9" fill-opacity="0.35"/>
<path d="M94.8566 289.365C88.9341 297.208 83.241 298.025 75.6923 295.681C67.3545 293.092 62.8593 286.174 63.8817 277.88C64.8923 269.683 70.3025 261.955 83.3977 262.858C90.8601 263.373 97.6447 270.437 97.3271 278.639C97.1903 282.171 95.8908 285.657 94.8566 289.365Z" fill="#A9FFA9" fill-opacity="0.35"/>
<path d="M142.21 197.454C144.921 197.466 147.396 197.042 149.536 197.702C151.027 198.162 152.057 200.109 153.292 201.391C152.029 202.451 150.918 203.947 149.462 204.451C147.894 204.994 146.004 204.606 143.853 204.678C140.847 204.161 139.572 204.972 139.787 207.863C139.96 210.202 140.22 212.69 139.602 214.876C139.19 216.335 137.305 217.379 136.079 218.61C134.926 217.342 133.076 216.224 132.765 214.776C132.099 211.677 132.23 208.409 131.996 204.586C128.94 204.586 126.047 204.551 123.155 204.597C120.682 204.636 118.19 204.038 118.91 201.144C119.278 199.664 121.661 198.038 123.381 197.687C126.181 197.114 129.185 197.532 132.659 197.532C132.659 194.242 132.269 191.281 132.801 188.495C133.138 186.724 134.844 185.212 135.936 183.584C137.231 185.122 139.091 186.475 139.671 188.246C140.324 190.24 139.624 192.637 139.915 194.805C140.043 195.765 141.161 196.593 142.21 197.454Z" fill="#4DBA4D"/>
<path d="M494.56 385.992C492.002 381.787 493.029 379.752 497.454 379.618C500.359 379.53 503.268 379.601 506.712 379.601C506.712 376.102 506.601 373.057 506.738 370.023C506.935 365.649 509.149 364.65 513.423 367.162C513.728 369.816 514.017 372.338 513.737 374.795C513.276 378.836 515.028 380.065 518.778 379.622C520.515 379.416 522.458 379.16 524.015 379.728C525.488 380.265 526.577 381.851 527.835 382.975C526.621 384.195 525.545 386.235 524.164 386.468C521.032 386.996 517.75 386.634 513.797 386.634C513.797 389.657 513.78 392.375 513.802 395.093C513.821 397.528 513.92 400.069 510.482 400.123C506.879 400.178 506.738 397.55 506.721 394.931C506.705 392.448 506.717 389.964 506.717 387.108C502.629 386.763 498.769 386.438 494.56 385.992Z" fill="#4DBA4D"/>
<path d="M230.487 84.4519C230.234 84.173 230.4 83.9275 230.42 83.7806C273.78 83.6459 317.119 83.6582 361.051 83.8121C362.111 84.0785 362.579 84.2033 363.046 84.3281C363.046 84.3281 363.257 84.6765 363.323 84.8691C320.034 85.0864 276.679 85.1134 233.324 85.1188C232.463 85.1189 231.602 84.8658 230.487 84.4519Z" fill="#4DBA4D"/>
<path d="M362.91 84.0883C362.579 84.2041 362.111 84.0793 361.459 83.7961C361.775 83.7077 362.274 83.7777 362.91 84.0883Z" fill="#4DBA4D"/>
<path d="M200.957 136.482C208.975 131.997 216.444 126.85 221.603 119.016C223.055 116.812 224.275 114.456 225.736 111.888C260.828 111.607 295.785 111.607 331.442 111.607C331.442 144.194 331.442 176.415 332.123 208.86C333.467 209.04 334.131 208.995 334.794 208.95C350.671 209.019 366.547 209.115 382.424 209.15C396.983 209.181 411.542 209.147 426.729 209.104C427.502 209.024 427.648 208.981 427.793 208.939C428.199 209.382 428.604 209.825 429.054 210.931C429.079 280.464 429.062 349.335 429.032 418.206C429.031 419.815 428.869 421.424 428.783 423.033C428.612 423.029 428.441 423.026 427.814 423.028C427.357 423.032 426.936 423.124 426.936 423.124C426.056 423.071 425.175 422.973 424.294 422.973C351.033 422.973 277.771 422.98 203.814 423.003C202.738 423.061 202.357 423.104 201.977 423.147C201.643 422.157 201.309 421.167 200.957 419.431C200.948 326.209 200.957 233.732 200.959 141.255C200.959 140.522 200.86 139.79 200.888 138.743C200.964 137.78 200.961 137.131 200.957 136.482ZM300.464 307.153C301.497 306.402 302.744 305.828 303.53 304.875C311.112 295.686 324.418 295.545 331.885 304.74C333.474 306.696 335.057 308.053 337.404 306.329C339.728 304.622 338.971 302.603 337.618 300.536C329.312 287.84 305.916 287.906 297.81 300.7C296.007 303.545 295.912 305.982 300.464 307.153ZM347.725 258.573C344.107 260.225 341.806 263.163 343.139 266.901C343.967 269.22 346.624 271.853 348.924 272.4C351.017 272.898 354.63 271.414 355.928 269.618C357.222 267.827 357.248 264.288 356.437 262.01C355.227 258.613 351.872 257.81 347.725 258.573ZM273.326 269.016C276.478 272.91 280.182 273.956 283.597 271.779C286.9 269.673 287.808 266.56 286.645 262.955C285.533 259.508 281.756 257.626 278.085 258.42C273.786 259.351 271.986 262.888 273.326 269.016Z" fill="white"/>
<path d="M359.201 123.103C359.543 121.04 360.202 121.673 361.225 122.751C366.173 127.968 371.199 133.111 376.178 138.298C389.789 152.48 403.391 166.67 416.659 181.149C397.42 181.445 378.519 181.448 359.618 181.452C359.574 181.302 359.531 181.151 359.409 180.404C359.287 160.906 359.244 142.005 359.201 123.103Z" fill="#F9FBFE"/>
<path d="M200.808 139.057C200.86 139.79 200.959 140.522 200.959 141.255C200.957 233.732 200.948 326.209 200.878 419.099C200.447 420.102 200.079 420.691 199.286 421.961C199.286 419.873 199.286 418.466 199.286 417.059C199.286 325.751 199.286 234.442 199.283 143.134C199.282 141.367 199.237 139.601 199.16 137.386C199.266 136.708 199.483 136.567 199.96 136.799C200.377 137.74 200.592 138.399 200.808 139.057Z" fill="#4DBA4D"/>
<path d="M429.116 422.914C428.869 421.424 429.031 419.816 429.032 418.207C429.063 349.336 429.079 280.465 429.214 211.199C429.704 212.109 430.405 213.412 430.406 214.716C430.46 282.743 430.46 350.769 430.413 418.796C430.412 420.129 429.785 421.462 429.116 422.914Z" fill="#4DBA4D"/>
<path d="M359.023 122.923C359.244 142.004 359.287 160.906 359.27 180.215C358.75 179.827 357.894 179.033 357.891 178.236C357.812 159.907 357.826 141.577 357.827 123.248C357.827 122.965 357.887 122.682 357.919 122.399C358.227 122.514 358.536 122.628 359.023 122.923Z" fill="#4DBA4D"/>
<path d="M359.851 181.743C378.519 181.449 397.421 181.445 416.736 181.433C416.093 181.761 415.037 182.39 413.98 182.393C396.58 182.45 379.181 182.432 361.781 182.408C361.216 182.408 360.65 182.164 359.851 181.743Z" fill="#4DBA4D"/>
<path d="M334.635 208.729C334.131 208.995 333.467 209.039 332.477 209.013C332.926 208.797 333.701 208.652 334.635 208.729Z" fill="#4DBA4D"/>
<path d="M202.107 423.325C202.357 423.104 202.738 423.061 203.402 423.072C203.203 423.251 202.721 423.378 202.107 423.325Z" fill="#4DBA4D"/>
<path d="M427.712 208.794C427.648 208.981 427.503 209.024 427.136 209.015C427.153 208.858 427.392 208.754 427.712 208.794Z" fill="#4DBA4D"/>
<path d="M427.011 423.258C426.937 423.124 427.357 423.032 427.565 423.088C427.544 423.226 427.314 423.309 427.011 423.258Z" fill="#4DBA4D"/>
<path d="M191.203 70.9746C199.553 77.2189 199.242 100.863 192.983 108.322C187.685 114.637 177.631 114.706 172.74 108.065C166.471 99.5549 166.544 81.8144 172.882 73.3788C177.189 67.6461 184.167 66.6456 191.203 70.9746ZM175.068 99.6768C175.397 100.65 175.65 101.657 176.069 102.589C177.441 105.641 179.05 108.396 183.076 108.25C187.211 108.1 189.07 105.336 190.038 101.943C192.219 94.2989 192.31 86.5554 189.973 78.9314C188.933 75.5406 186.849 72.7425 182.784 72.8482C178.939 72.9481 176.633 75.7052 176.201 78.9523C175.323 85.5676 175.238 92.2881 175.068 99.6768Z" fill="#FCFDFF"/>
<path d="M200.888 138.744C200.592 138.399 200.377 137.74 200.159 136.81C200.156 136.539 200.552 136.446 200.755 136.464C200.961 137.131 200.965 137.78 200.888 138.744Z" fill="#4DBA4D"/>
<path d="M300.124 307.152C295.913 305.981 296.007 303.545 297.81 300.7C305.916 287.906 329.312 287.839 337.618 300.535C338.971 302.603 339.728 304.621 337.404 306.329C335.058 308.052 333.474 306.696 331.886 304.739C324.418 295.545 311.112 295.686 303.53 304.874C302.744 305.827 301.498 306.402 300.124 307.152Z" fill="#4DBA4D"/>
<path d="M348.039 258.497C351.872 257.81 355.227 258.613 356.437 262.01C357.248 264.288 357.222 267.827 355.928 269.618C354.63 271.414 351.017 272.898 348.924 272.4C346.624 271.853 343.967 269.22 343.139 266.901C341.806 263.163 344.107 260.225 348.039 258.497Z" fill="#4DBA4D"/>
<path d="M273.155 268.731C271.987 262.888 273.787 259.35 278.086 258.42C281.757 257.625 285.534 259.508 286.646 262.954C287.809 266.56 286.901 269.673 283.598 271.779C280.183 273.956 276.478 272.91 273.155 268.731Z" fill="#4DBA4D"/>
<path d="M174.947 99.3204C175.238 92.2875 175.323 85.5671 176.202 78.9517C176.633 75.7046 178.939 72.9476 182.784 72.8476C186.849 72.7419 188.933 75.54 189.973 78.9309C192.31 86.5549 192.219 94.2983 190.038 101.943C189.07 105.336 187.211 108.1 183.076 108.25C179.05 108.396 177.441 105.64 176.069 102.589C175.65 101.656 175.397 100.649 174.947 99.3204Z" fill="#4DBA4D"/>
</svg>
